HIERARCHY
ROOT Hips
{
	OFFSET 0.000000 88.474243 0.000000
	CHANNELS 6 Xposition Yposition Zposition Zrotation Yrotation Xrotation 
	JOINT Hips_Spine
	{
		OFFSET 0.000000 0.000000 0.000000
		CHANNELS 3 Zrotation Yrotation Xrotation
		JOINT Spine
		{
			OFFSET 0.005100 8.711998 -0.691000
			CHANNELS 3 Zrotation Yrotation Xrotation
			JOINT Spine1
			{
				OFFSET -0.009200 8.660301 -1.275000
				CHANNELS 3 Zrotation Yrotation Xrotation
				JOINT Spine2
				{
					OFFSET 0.006300 9.852501 -1.857000
					CHANNELS 3 Zrotation Yrotation Xrotation
					JOINT Spine2_Neck
					{
						OFFSET 0.000000 0.000000 0.000000
						CHANNELS 3 Zrotation Yrotation Xrotation
						JOINT Neck
						{
							OFFSET 0.016300 11.420799 -0.263300
							CHANNELS 3 Zrotation Yrotation Xrotation
							End Site #name: Head
							{
								OFFSET -0.019200 9.262405 2.362500
							}
						}
					}
					JOINT Spine2_LeftShoulder
					{
						OFFSET 0.000000 0.000000 0.000000
						CHANNELS 3 Zrotation Yrotation Xrotation
						JOINT LeftShoulder
						{
							OFFSET 5.616900 6.732201 -0.345700
							CHANNELS 3 Zrotation Yrotation Xrotation
							JOINT LeftArm
							{
								OFFSET 10.664888 -0.183372 -2.440700
								CHANNELS 3 Zrotation Yrotation Xrotation
								JOINT LeftForeArm
								{
									OFFSET 27.459126 0.000000 0.000000
									CHANNELS 3 Zrotation Yrotation Xrotation
									End Site #name: LeftHand
									{
										OFFSET 21.306858 0.000000 0.000000
									}
								}
							}
						}
					}
					JOINT Spine2_RightShoulder
					{
						OFFSET 0.000000 0.000000 0.000000
						CHANNELS 3 Zrotation Yrotation Xrotation
						JOINT RightShoulder
						{
							OFFSET -5.580300 6.737503 -0.344400
							CHANNELS 3 Zrotation Yrotation Xrotation
							JOINT RightArm
							{
								OFFSET -10.679335 -0.188484 -2.383900
								CHANNELS 3 Zrotation Yrotation Xrotation
								JOINT RightForeArm
								{
									OFFSET -27.503529 0.000000 0.000000
									CHANNELS 3 Zrotation Yrotation Xrotation
									End Site #name: RightHand
									{
										OFFSET -21.306808 0.000000 0.000000
									}
								}
							}
						}
					}
				}
			}
		}
	}
	JOINT Hips_LeftUpLeg
	{
		OFFSET 0.000000 0.000000 0.000000
		CHANNELS 3 Zrotation Yrotation Xrotation
		JOINT LeftUpLeg
		{
			OFFSET 6.857700 -6.739601 0.312100
			CHANNELS 3 Zrotation Yrotation Xrotation
			JOINT LeftLeg
			{
				OFFSET -0.367590 -34.731552 -4.572400
				CHANNELS 3 Zrotation Yrotation Xrotation
				End Site #name: LeftFoot
				{
					OFFSET 0.367590 -34.656704 -6.067400
				}
			}
		}
	}
	JOINT Hips_RightUpLeg
	{
		OFFSET 0.000000 0.000000 0.000000
		CHANNELS 3 Zrotation Yrotation Xrotation
		JOINT RightUpLeg
		{
			OFFSET -6.876100 -6.733299 0.301000
			CHANNELS 3 Zrotation Yrotation Xrotation
			JOINT RightLeg
			{
				OFFSET 0.347353 -34.795158 -4.515900
				CHANNELS 3 Zrotation Yrotation Xrotation
				End Site #name: RightFoot
				{
					OFFSET -0.347353 -34.589367 -6.070300
				}
			}
		}
	}
}
MOTION
Frames: 15
Frame Time: 0.041667
5.616744 0.998763 1.716365 -3.928488 -8.933434 -1.187134 0.000000 0.000000 -0.000000 -0.289341 0.447084 4.004299 -0.822526 1.264031 8.881681 0.000000 0.000000 0.000000 -0.935399 1.143220 8.698899 1.476059 -2.068225 3.225100 -0.849251 1.227795 8.745826 3.291110 0.869415 0.416594 -75.012714 -10.511427 26.305938 -176.610107 -86.200881 176.474054 -0.771834 1.177043 8.515953 -3.759187 -1.387346 1.093461 75.881105 -9.274357 4.280027 -174.618564 84.626549 -174.835758 -0.000000 -0.000000 -0.000000 1.761887 1.333443 -20.307515 -1.024431 0.461837 29.043675 0.000000 0.000000 -0.000000 -7.524877 0.098848 -16.461705 0.149453 -0.675661 19.087748 
5.822092 1.034508 1.767423 -3.896577 -9.071013 -1.206398 0.000000 0.000000 -0.000000 -0.301230 0.458680 4.019923 -0.804070 1.251413 8.803279 0.000000 0.000000 0.000000 -0.917639 1.134624 8.603572 1.210287 -2.339980 3.288868 -0.830808 1.226558 8.667963 3.255823 0.815435 0.429517 -75.021409 -10.246298 26.089345 -177.120171 -86.240164 176.972060 -0.755355 1.164628 8.443227 -3.715467 -1.373925 1.072398 75.999586 -9.425154 4.015847 -174.444181 84.669580 -174.678584 -0.000000 -0.000000 -0.000000 1.584481 1.336986 -20.098262 -0.976739 0.474414 28.668061 0.000000 0.000000 -0.000000 -7.618886 0.327367 -16.415181 0.112446 -0.621906 18.883790 
6.011261 1.066381 1.813035 -3.865497 -9.169238 -1.234679 0.000000 0.000000 -0.000000 -0.307655 0.468840 4.017909 -0.786408 1.243513 8.736245 0.000000 0.000000 0.000000 -0.898557 1.132386 8.522596 1.035966 -2.549085 3.333274 -0.814367 1.230824 8.599372 3.238147 0.781955 0.442270 -75.036314 -9.981391 25.875345 -177.524258 -86.260772 177.368168 -0.741431 1.157475 8.380960 -3.701036 -1.374929 1.053137 76.104732 -9.574922 3.788011 -174.272425 84.708330 -174.525533 -0.000000 -0.000000 -0.000000 1.426222 1.332782 -19.871772 -0.939549 0.485271 28.302189 0.000000 0.000000 -0.000000 -7.710736 0.499305 -16.322076 0.052672 -0.587368 18.704295 
6.183172 1.094246 1.851279 -3.842248 -9.254738 -1.256635 0.000000 0.000000 -0.000000 -0.311819 0.483221 4.005789 -0.768811 1.239319 8.669577 0.000000 0.000000 0.000000 -0.878953 1.130676 8.439113 0.923999 -2.720410 3.390313 -0.798504 1.239095 8.538124 3.224757 0.759568 0.454538 -75.073237 -9.702056 25.647010 -177.907769 -86.291807 177.742475 -0.728805 1.154746 8.326986 -3.666094 -1.379839 1.034523 76.194186 -9.706608 3.601615 -174.140435 84.720181 -174.410000 -0.000000 -0.000000 -0.000000 1.277977 1.329284 -19.643393 -0.921178 0.487026 27.954138 0.000000 0.000000 -0.000000 -7.806626 0.624632 -16.216701 -0.036730 -0.593505 18.547634 
6.336394 1.118065 1.881814 -3.826390 -9.408335 -1.250532 0.000000 0.000000 -0.000000 -0.320310 0.500969 3.961139 -0.750579 1.238366 8.607855 0.000000 0.000000 0.000000 -0.858588 1.132332 8.365996 0.842409 -2.859326 3.433197 -0.782053 1.248605 8.481336 3.217219 0.751895 0.462178 -75.123872 -9.422674 25.435818 -178.225297 -86.338898 178.053160 -0.716005 1.155701 8.276532 -3.634479 -1.391598 1.016640 76.265536 -9.832286 3.438524 -174.007793 84.722749 -174.296548 0.000000 -0.000000 -0.000000 1.140683 1.339292 -19.430985 -0.914357 0.479757 27.654710 0.000000 0.000000 -0.000000 -7.898840 0.718625 -16.100251 -0.138941 -0.618700 18.409076 
6.465046 1.136974 1.904550 -3.804996 -9.547046 -1.231149 0.000000 0.000000 -0.000000 -0.325634 0.519234 3.902232 -0.730899 1.240742 8.552096 0.000000 0.000000 0.000000 -0.838437 1.138361 8.298610 0.812055 -2.906071 3.478252 -0.765069 1.260405 8.428384 3.208575 0.751835 0.467341 -75.171488 -9.169125 25.227615 -178.545598 -86.410784 178.364460 -0.704846 1.161223 8.232582 -3.603856 -1.403773 1.001551 76.292966 -9.946405 3.312651 -173.881016 84.719071 -174.186174 0.000000 -0.000000 -0.000000 0.999267 1.360156 -19.245699 -0.905137 0.476377 27.414446 0.000000 0.000000 -0.000000 -7.994201 0.790197 -16.000488 -0.192412 -0.632464 18.336588 
6.562819 1.150977 1.920215 -3.777332 -9.665662 -1.202578 0.000000 0.000000 -0.000000 -0.329601 0.533831 3.828139 -0.713173 1.244942 8.494663 0.000000 0.000000 0.000000 -0.817764 1.148177 8.240019 0.810848 -2.919200 3.502982 -0.748456 1.273602 8.384048 3.204608 0.764398 0.468758 -75.240728 -8.915785 25.013823 -178.892314 -86.511222 178.702426 -0.695475 1.171671 8.195650 -3.577117 -1.404612 0.989790 76.278847 -10.054847 3.219128 -173.747551 84.722977 -174.066968 0.000000 -0.000000 -0.000000 0.865939 1.390270 -19.106628 -0.897377 0.466505 27.274596 0.000000 0.000000 -0.000000 -8.098736 0.836857 -15.927813 -0.190617 -0.634880 18.324235 
6.622892 1.160268 1.930024 -3.741796 -9.772178 -1.163354 0.000000 0.000000 -0.000000 -0.333012 0.545092 3.747104 -0.697278 1.251860 8.445776 0.000000 0.000000 0.000000 -0.797128 1.161493 8.189879 0.827071 -2.904335 3.500096 -0.733119 1.288687 8.346309 3.205556 0.789373 0.468204 -75.296211 -8.699594 24.830248 -179.212775 -86.620400 179.015293 -0.688242 1.185691 8.165516 -3.563531 -1.408354 0.977738 76.245119 -10.132085 3.153905 -173.641606 84.702946 -173.970722 0.000000 -0.000000 -0.000000 0.729069 1.424257 -19.009475 -0.890008 0.462923 27.226361 0.000000 0.000000 -0.000000 -8.207230 0.859694 -15.876021 -0.173640 -0.626108 18.343707 
6.638508 1.164707 1.935481 -3.701452 -9.858826 -1.114596 0.000000 0.000000 -0.000000 -0.335651 0.549633 3.666074 -0.684829 1.259660 8.400021 0.000000 0.000000 0.000000 -0.776732 1.178395 8.148345 0.864031 -2.869216 3.475922 -0.719190 1.298122 8.318353 3.215613 0.822473 0.465942 -75.343123 -8.497032 24.649048 -179.583795 -86.761829 179.377993 -0.681906 1.202252 8.144599 -3.557934 -1.428344 0.965522 76.204313 -10.222109 3.094522 -173.542049 84.673951 -173.878219 0.000000 -0.000000 -0.000000 0.608237 1.462222 -18.973624 -0.888079 0.459984 27.269067 0.000000 0.000000 -0.000000 -8.312621 0.856742 -15.853161 -0.147700 -0.611300 18.399764 
6.604127 1.165247 1.938736 -3.621511 -9.938876 -1.058954 0.000000 0.000000 -0.000000 -0.336378 0.548946 3.594771 -0.675618 1.267985 8.358554 0.000000 0.000000 0.000000 -0.757284 1.195501 8.117998 0.917562 -2.820198 3.432382 -0.706892 1.304920 8.298584 3.219380 0.844509 0.466864 -75.382484 -8.318479 24.498056 179.996463 -86.905019 179.789578 -0.676484 1.219639 8.129517 -3.568066 -1.463174 0.956936 76.148206 -10.312478 3.055555 -173.447527 84.659876 -173.785694 0.000000 -0.000000 -0.000000 0.513659 1.504010 -18.974086 -0.882027 0.465127 27.360997 -0.000000 0.000000 -0.000000 -8.408730 0.821485 -15.856127 -0.116109 -0.588486 18.472571 
6.514973 1.164552 1.944902 -3.505078 -9.986678 -1.008444 0.000000 0.000000 -0.000000 -0.334081 0.542436 3.550615 -0.669546 1.276482 8.318016 0.000000 0.000000 0.000000 -0.737531 1.212647 8.092072 0.987206 -2.757623 3.367443 -0.693987 1.309878 8.283394 3.228084 0.857731 0.469809 -75.404918 -8.176077 24.394687 179.555166 -87.036917 -179.772558 -0.671518 1.236614 8.121358 -3.604449 -1.519459 0.954568 76.096290 -10.379264 3.058006 -173.319322 84.668987 -173.658114 0.000000 -0.000000 -0.000000 0.454002 1.546193 -19.000630 -0.872433 0.476848 27.479244 -0.000000 0.000000 -0.000000 -8.480705 0.770139 -15.885104 -0.081811 -0.560754 18.574286 
6.364598 1.165161 1.958705 -3.349345 -10.004851 -0.975634 0.000000 0.000000 -0.000000 -0.328668 0.530014 3.527904 -0.666054 1.285733 8.278926 0.000000 0.000000 0.000000 -0.717741 1.230779 8.069603 1.071087 -2.677199 3.281525 -0.681280 1.313745 8.271654 3.245155 0.863784 0.472662 -75.424397 -8.042177 24.310745 179.055661 -87.163491 -179.275012 -0.666582 1.253594 8.117581 -3.698216 -1.583317 0.959408 76.046808 -10.445337 3.089958 -173.246064 84.651205 -173.580964 0.000000 -0.000000 -0.000000 0.444070 1.577367 -19.025751 -0.865712 0.490999 27.584688 -0.000000 0.000000 -0.000000 -8.520666 0.714194 -15.923893 -0.053152 -0.540549 18.672800 
6.146799 1.170604 1.984714 -3.158184 -9.973131 -0.977601 0.000000 0.000000 -0.000000 -0.316425 0.517721 3.536972 -0.664443 1.294030 8.240047 0.000000 0.000000 0.000000 -0.697965 1.248020 8.050818 1.167572 -2.573667 3.167119 -0.668305 1.315201 8.257858 3.260768 0.858511 0.477844 -75.430188 -7.907389 24.282790 178.477077 -87.293365 -178.694704 -0.662446 1.269606 8.118868 -3.790378 -1.648547 0.968785 76.007723 -10.523501 3.134217 -173.269239 84.572544 -173.592975 0.000000 -0.000000 -0.000000 0.480332 1.607156 -19.020286 -0.856103 0.511671 27.651726 -0.000000 0.000000 -0.000000 -8.509502 0.664823 -15.947670 -0.034956 -0.527246 18.742693 
5.861544 1.182989 2.024938 -2.939958 -9.915841 -1.020319 0.000000 0.000000 -0.000000 -0.300568 0.508208 3.573966 -0.664943 1.298095 8.201614 0.000000 0.000000 0.000000 -0.679796 1.266043 8.041634 1.270516 -2.436828 3.033619 -0.657230 1.316393 8.244126 3.271903 0.852660 0.483734 -75.429298 -7.745913 24.254960 177.780560 -87.429579 -177.995793 -0.657740 1.283515 8.125355 -3.881690 -1.702482 0.983735 75.964559 -10.631016 3.174114 -173.384126 84.455002 -173.696016 0.000000 -0.000000 -0.000000 0.556661 1.643023 -18.963037 -0.848303 0.530246 27.659877 -0.000000 0.000000 -0.000000 -8.446410 0.628052 -15.928512 -0.027788 -0.530470 18.777170 
5.509912 1.202669 2.077593 -2.692000 -9.818568 -1.112285 0.000000 0.000000 -0.000000 -0.281108 0.507069 3.624437 -0.662590 1.297188 8.160751 0.000000 0.000000 0.000000 -0.661154 1.284760 8.033929 1.360780 -2.269886 2.871356 -0.647285 1.317943 8.226227 3.286852 0.859502 0.491223 -75.432423 -7.534652 24.215783 177.048210 -87.551261 -177.256175 -0.652062 1.295728 8.132643 -3.954187 -1.740755 1.008774 75.915544 -10.765268 3.213308 -173.598416 84.307755 -173.891847 0.000000 -0.000000 -0.000000 0.660603 1.674978 -18.810878 -0.831184 0.551134 27.560636 0.000000 0.000000 -0.000000 -8.325508 0.617102 -15.853184 -0.029356 -0.540158 18.771646 
